<?xml version="1.0" standalone="no"?>
<!DOCTYPE svg PUBLIC "-//W3C//DTD SVG 20010904//EN"
 "http://www.w3.org/TR/2001/REC-SVG-20010904/DTD/svg10.dtd">
<svg version="1.0" xmlns="http://www.w3.org/2000/svg"
 width="700.000000pt" height="700.000000pt" viewBox="0 0 700.000000 700.000000"
 preserveAspectRatio="xMidYMid meet">
<metadata>
Created by potrace 1.11, written by Peter Selinger 2001-2013
</metadata>
<g transform="translate(0.000000,700.000000) scale(0.100000,-0.100000)"
fill="#000000" stroke="none">
<path d="M590 6984 c-292 -63 -513 -285 -575 -579 -13 -61 -15 -440 -14 -2900
0 -1756 4 -2852 10 -2888 50 -302 278 -537 585 -602 101 -21 5714 -21 5814 1
146 31 282 107 382 211 89 94 136 174 181 313 l22 65 2 2860 c1 1799 -2 2881
-8 2918 -50 298 -279 536 -579 601 -97 21 -5723 21 -5820 0z"/>
</g>
</svg>
